{"title":"Remember Sunday 2013 WEBRip XViD juggs","uid":8441631,"size":739423667,"categoryP":"video","categoryS":"movies","magnet":"?xt=urn:btih:2330dba8d44a63c0cc03302c3608c44a654a0155&amp;dn=Remember+Sunday+2013+WEBRip+XViD+juggs&amp;tr=udp%3A%2F%2Ftracker.openbittorrent.com%3A80&amp;tr=udp%3A%2F%2Fopen.demonii.com%3A1337&amp;tr=udp%3A%2F%2Ftracker.coppersurfer.tk%3A6969&amp;tr=udp%3A%2F%2Fexodus.desync.com%3A6969","seeders":26,"leechers":3,"uploader":"juggs99","files":3,"time":1367784742,"description":" &lt;a href=&quot;http://www.imdb.com/title/tt2770480/&quot; rel=&quot;nofollow&quot; target=&quot;_NEW&quot;&gt;http://www.imdb.com/title/tt2770480/&lt;/a&gt;\n\nFormat : AVI\nFormat/Info : Audio Video Interleave\nFile size : 699 MiB\nDuration : 1h 36mn\nOverall bit rate : 1 010 Kbps\nWriting library : VirtualDub build 32842/release\n\nVideo\nID : 0\nFormat : MPEG-4 Visual\nFormat profile : Advanced Simple@L5\nFormat settings, BVOP : 2\nFormat settings, QPel : No\nFormat settings, GMC : No warppoints\nFormat settings, Matrix : Default (H.263)\nMuxing mode : Packed bitstream\nCodec ID : XVID\nCodec ID/Hint : XviD\nDuration : 1h 36mn\nBit rate : 872 Kbps\nWidth : 640 pixels\nHeight : 352 pixels\nDisplay aspect ratio : 16:9\nFrame rate : 23.976 fps\nColor space : YUV\nChroma subsampling : 4:2:0\nBit depth : 8 bits\nScan type : Progressive\nCompression mode : Lossy\nBits/(Pixel*Frame) : 0.161\nStream size : 604 MiB (86%)\nWriting library : XviD 1.2.0.dev47 (UTC 2006-11-01)\n\nAudio\nID : 1\nFormat : MPEG Audio\nFormat version : Version 1\nFormat profile : Layer 3\nCodec ID : 55\nCodec ID/Hint : MP3\nDuration : 1h 36mn\nBit rate mode : Constant\nBit rate : 128 Kbps\nChannel(s) : 2 channels\nSampling rate : 44.1 KHz\nCompression mode : Lossy\nStream size : 88.7 MiB (13%)\nAlignment : Split accross interleaves\nInterleave, duration : 42 ms (1.00 video frame)\nInterleave, preload duration : 500 ms\nWriting library : LAME3.99r\nEncoding settings : -m s -V 4 -q 3 -lowpass 17 -b 128\n\nPlot\nA lonely waitress meets a handsome, quirky jewelry store clerk who had a brain aneurysm and thus has short-term memory loss.\n &lt;a href=&quot;\nhttp://img705.imageshack.us/img705/2207/dalet.png&quot; rel=&quot;nofollow&quot; target=&quot;_NEW&quot;&gt;\nhttp://img705.imageshack.us/img705/2207/dalet.png&lt;/a&gt; &lt;a href=&quot;\nhttp://img191.imageshack.us/img191/1937/dale1.png&quot; rel=&quot;nofollow&quot; target=&quot;_NEW&quot;&gt;\nhttp://img191.imageshack.us/img191/1937/dale1.png&lt;/a&gt; &lt;a href=&quot;\nhttp://img854.imageshack.us/img854/2118/dale2.png&quot; rel=&quot;nofollow&quot; target=&quot;_NEW&quot;&gt;\nhttp://img854.imageshack.us/img854/2118/dale2.png&lt;/a&gt;","torrent":{"xt":"urn:btih:2330dba8d44a63c0cc03302c3608c44a654a0155","amp;dn":"Remember+Sunday+2013+WEBRip+XViD+juggs","amp;tr":["udp%3A%2F%2Ftracker.openbittorrent.com%3A80","udp%3A%2F%2Fopen.demonii.com%3A1337","udp%3A%2F%2Ftracker.coppersurfer.tk%3A6969","udp%3A%2F%2Fexodus.desync.com%3A6969"],"infoHash":"2330dba8d44a63c0cc03302c3608c44a654a0155","infoHashBuffer":{"type":"Buffer","data":[35,48,219,168,212,74,99,192,204,3,48,44,54,8,196,74,101,74,1,85]},"announce":[],"urlList":[]}}